# xmcd
# Copyright (C) 1995-1998 Ti Kan
#
# Track frame offsets:
#       150
#       19137
#       36975
#       57450
#       78225
#       98850
#       117500
#       134122
#       154250
#       172350
#
# Disc length: 2614 seconds
#
# Revision: 0
# Processed by: cddbd v1.4PL0 Copyright (c) Steve Scherf et al.
# Submitted via: CD-Transfer v1.0
#
DISCID=920a340a
DTITLE=Fusion Square Garden - Die Glychi Gschicht
DYEAR=2001
DGENRE=
TTITLE0=Lieber Hüt
TTITLE1=Eini Vo Dene Nächt
TTITLE2=Die Glychi Gschicht
TTITLE3=E Haube
TTITLE4=Musique À Gogo
TTITLE5=Ungerhose
TTITLE6=No Winter
TTITLE7=U No Meh
TTITLE8=Go Around
TTITLE9=Federal Dub
EXTD=
EXTT0=
EXTT1=
EXTT2=
EXTT3=
EXTT4=
EXTT5=
EXTT6=
EXTT7=
EXTT8=
EXTT9=
PLAYORDER=
